<?xml version="1.0" encoding="utf-8"?>
<!-- Generated by Mocodo 4.1.2 -->
<svg width="424" height="186" viewBox="0 0 424 186" xmlns="http://www.w3.org/2000/svg">
<rect x="0" y="0" width="424" height="186" fill="#f5f5f5" stroke="none" stroke-width="0"/>

<!-- Inheritance ARTICLE_PARENT_#1 -->
<g>
	<line x1="291" y1="51" x2="393" y2="51" stroke="#35978f" stroke-width="2"/>
	<polygon points="330 51 342 45 338 51 342 57" fill="#35978f" stroke-width="0"/>
	<line x1="156" y1="143" x2="393" y2="51" stroke="#35978f" stroke-width="2"/>
	<line x1="291" y1="143" x2="393" y2="51" stroke="#35978f" stroke-width="2"/>
	<g>
		<polygon points="393 25.6 371 63.7 415 63.7" stroke="#35978f" stroke-width="2" fill="#80cdc1"/>
		<text x="385" y="56" fill="#000000" font-family="Verdana" font-size="12">XT</text>
	</g>
</g>

<!-- Association CONTENT -->
<g>
	<line x1="48" y1="51" x2="156" y2="51" stroke="#35978f" stroke-width="2"/>
	<line x1="291" y1="51" x2="156" y2="51" stroke="#35978f" stroke-width="2"/>
	<g>
		<path d="M179 26 a14 14 90 0 1 14 14 V51 h-74 V40 a14 14 90 0 1 14 -14" fill="#80cdc1" stroke="#80cdc1" stroke-width="0"/>
		<path d="M193 51 v11 a14 14 90 0 1 -14 14 H133 a14 14 90 0 1 -14 -14 V51 H74" fill="#c7eae5" stroke="#c7eae5" stroke-width="0"/>
		<rect x="119" y="26" width="74" height="50" fill="none" rx="14" stroke="#35978f" stroke-width="2"/>
		<line x1="119" y1="51" x2="193" y2="51" stroke="#35978f" stroke-width="1"/>
		<text x="127" y="43.75" fill="#000000" font-family="Verdana" font-size="12">CONTENT</text>
	</g>
	<text x="92" y="68" fill="#8c510a" font-family="Verdana" font-size="12">0,N</text>
	<text x="226" y="68" fill="#8c510a" font-family="Verdana" font-size="12">0,1</text>
</g>

<!-- Entity SECTION -->
<g>
	<g>
		<rect x="9" y="9" width="78" height="25" fill="#dfc27d" stroke="none" stroke-width="0" opacity="1"/>
		<rect x="9" y="34" width="78" height="59" fill="#f6e8c3" stroke="none" stroke-width="0" opacity="1"/>
		<rect x="9" y="9" width="78" height="84" fill="none" stroke="#bf812d" stroke-width="2" opacity="1"/>
		<line x1="9" y1="34" x2="87" y2="34" stroke="#bf812d" stroke-width="1"/>
	</g>
	<text x="20" y="26.75" fill="#000000" font-family="Verdana" font-size="12">SECTION</text>
	<text x="14" y="51.8" fill="#000000" font-family="Verdana" font-size="12">name</text>
	<line x1="14" y1="54" x2="49" y2="54" stroke="#000000" stroke-width="1"/>
	<text x="14" y="68.8" fill="#000000" font-family="Verdana" font-size="12">content</text>
	<text x="14" y="85.8" fill="#000000" font-family="Verdana" font-size="12">articleType</text>
</g>

<!-- Entity ARTICLE -->
<g>
	<g>
		<rect x="252" y="9" width="78" height="25" fill="#dfc27d" stroke="none" stroke-width="0" opacity="1"/>
		<rect x="252" y="34" width="78" height="59" fill="#f6e8c3" stroke="none" stroke-width="0" opacity="1"/>
		<rect x="252" y="9" width="78" height="84" fill="none" stroke="#bf812d" stroke-width="2" opacity="1"/>
		<line x1="252" y1="34" x2="330" y2="34" stroke="#bf812d" stroke-width="1"/>
	</g>
	<text x="265" y="26.75" fill="#000000" font-family="Verdana" font-size="12">ARTICLE</text>
	<text x="257" y="51.8" fill="#000000" font-family="Verdana" font-size="12">title</text>
	<line x1="257" y1="54" x2="281" y2="54" stroke="#000000" stroke-width="1"/>
	<text x="257" y="68.8" fill="#000000" font-family="Verdana" font-size="12">content</text>
	<text x="257" y="85.8" fill="#000000" font-family="Verdana" font-size="12">alphaOrder</text>
</g>

<!-- Entity ARTICLECV -->
<g>
	<g>
		<rect x="123" y="109" width="66" height="25" fill="#dfc27d" stroke="none" stroke-width="0" opacity="1"/>
		<rect x="123" y="134" width="66" height="43" fill="#f6e8c3" stroke="none" stroke-width="0" opacity="1"/>
		<rect x="123" y="109" width="66" height="68" fill="none" stroke="#bf812d" stroke-width="2" opacity="1"/>
		<line x1="123" y1="134" x2="189" y2="134" stroke="#bf812d" stroke-width="1"/>
	</g>
	<text x="129" y="126.75" fill="#000000" font-family="Verdana" font-size="12">ArticleCv</text>
	<text x="128" y="151.8" fill="#000000" font-family="Verdana" font-size="12">date</text>
	<text x="128" y="168.8" fill="#000000" font-family="Verdana" font-size="12">location</text>
</g>

<!-- Entity ARTICLEPROJECTTECHNOS -->
<g>
	<g>
		<rect x="221" y="118" width="140" height="25" fill="#dfc27d" stroke="none" stroke-width="0" opacity="1"/>
		<rect x="221" y="143" width="140" height="25" fill="#f6e8c3" stroke="none" stroke-width="0" opacity="1"/>
		<rect x="221" y="118" width="140" height="50" fill="none" stroke="#bf812d" stroke-width="2" opacity="1"/>
		<line x1="221" y1="143" x2="361" y2="143" stroke="#bf812d" stroke-width="1"/>
	</g>
	<text x="226" y="135.75" fill="#000000" font-family="Verdana" font-size="12">ArticleProjectTechnos</text>
	<text x="226" y="160.8" fill="#000000" font-family="Verdana" font-size="12">image</text>
</g>
</svg>